<?xml version="1.0" encoding="iso-8859-1"?>
<!-- Uploaded to: SVG Repo, www.svgrepo.com, Generator: SVG Repo Mixer Tools -->
<svg fill="#000000" version="1.1" id="Layer_1" xmlns="http://www.w3.org/2000/svg" xmlns:xlink="http://www.w3.org/1999/xlink" 
	 viewBox="0 0 512 512" xml:space="preserve">
<g>
	<g>
		<rect x="311.652" y="33.391" width="33.391" height="33.391"/>
	</g>
</g>
<g>
	<g>
		<rect x="66.783" y="200.348" width="133.565" height="33.391"/>
	</g>
</g>
<g>
	<g>
		<rect x="66.783" y="289.391" width="100.174" height="33.391"/>
	</g>
</g>
<g>
	<g>
		<rect x="66.783" y="378.435" width="100.174" height="33.391"/>
	</g>
</g>
<g>
	<g>
		<rect x="200.348" y="267.13" width="33.391" height="111.304"/>
	</g>
</g>
<g>
	<g>
		<rect x="233.739" y="233.739" width="33.391" height="33.391"/>
	</g>
</g>
<g>
	<g>
		<rect x="233.739" y="378.435" width="33.391" height="33.391"/>
	</g>
</g>
<g>
	<g>
		<g>
			<rect x="411.826" y="267.13" width="33.391" height="144.696"/>
			<rect x="445.217" y="411.826" width="33.391" height="33.391"/>
		</g>
	</g>
</g>
<g>
	<g>
		<g>
			<polygon points="267.13,411.826 267.13,445.217 345.043,445.217 345.043,478.609 33.391,478.609 33.391,33.391 244.87,33.391 
				244.87,133.565 345.043,133.565 345.043,200.348 267.13,200.348 267.13,233.739 378.435,233.739 378.435,66.783 345.043,66.783 
				345.043,100.174 278.261,100.174 278.261,33.391 311.652,33.391 311.652,0 0,0 0,33.391 0,478.609 0,512 378.435,512 
				378.435,445.217 411.826,445.217 411.826,411.826 			"/>
			<rect x="378.435" y="233.739" width="33.391" height="33.391"/>
			<rect x="411.826" y="445.217" width="33.391" height="33.391"/>
		</g>
	</g>
</g>
<g>
	<g>
		<polygon points="478.609,445.217 478.609,478.609 445.217,478.609 445.217,512 512,512 512,445.217 		"/>
	</g>
</g>
<g>
	<g>
		<rect x="267.13" y="267.13" width="111.304" height="111.304"/>
	</g>
</g>
</svg>